<svg width="190" height="39" viewBox="0 0 190 39" fill="none" xmlns="http://www.w3.org/2000/svg">
<path d="M57.75 9C59.81 9 61.55 9.7 62.97 11.1C64.39 12.5 65.1 14.2 65.1 16.2C65.1 18.2 64.39 19.9 62.97 21.3C61.55 22.7 59.81 23.4 57.75 23.4H54.6V30H49.8V9H57.75ZM57.75 18.9C58.49 18.9 59.1 18.64 59.58 18.12C60.06 17.6 60.3 16.96 60.3 16.2C60.3 15.44 60.06 14.8 59.58 14.28C59.1 13.76 58.49 13.5 57.75 13.5H54.6V18.9H57.75ZM76.1353 14.58C77.7353 14.58 79.0653 15.13 80.1253 16.23C81.2053 17.33 81.7453 18.85 81.7453 20.79V30H77.2453V21.45C77.2453 20.57 76.9953 19.9 76.4953 19.44C76.0153 18.96 75.3953 18.72 74.6353 18.72C73.7753 18.72 73.0953 18.98 72.5953 19.5C72.0953 20.02 71.8453 20.79 71.8453 21.81V30H67.3453V9H71.8453V16.41C72.7453 15.19 74.1753 14.58 76.1353 14.58ZM95.7255 15H100.226V30H95.7255V28.59C94.6655 29.81 93.1755 30.42 91.2555 30.42C89.2755 30.42 87.5855 29.66 86.1855 28.14C84.7855 26.6 84.0855 24.72 84.0855 22.5C84.0855 20.28 84.7855 18.41 86.1855 16.89C87.5855 15.35 89.2755 14.58 91.2555 14.58C93.1755 14.58 94.6655 15.19 95.7255 16.41V15ZM89.5755 25.17C90.2355 25.83 91.0955 26.16 92.1555 26.16C93.2155 26.16 94.0755 25.83 94.7355 25.17C95.3955 24.51 95.7255 23.62 95.7255 22.5C95.7255 21.38 95.3955 20.49 94.7355 19.83C94.0755 19.17 93.2155 18.84 92.1555 18.84C91.0955 18.84 90.2355 19.17 89.5755 19.83C88.9155 20.49 88.5855 21.38 88.5855 22.5C88.5855 23.62 88.9155 24.51 89.5755 25.17ZM108.027 17.67C108.307 16.71 108.867 15.98 109.707 15.48C110.567 14.96 111.507 14.7 112.527 14.7V19.8C111.427 19.62 110.397 19.81 109.437 20.37C108.497 20.91 108.027 21.86 108.027 23.22V30H103.527V15H108.027V17.67ZM131.43 14.58C133.15 14.58 134.53 15.15 135.57 16.29C136.61 17.41 137.13 18.91 137.13 20.79V30H132.63V21.18C132.63 20.42 132.44 19.82 132.06 19.38C131.7 18.94 131.17 18.72 130.47 18.72C129.73 18.72 129.15 18.97 128.73 19.47C128.33 19.97 128.13 20.66 128.13 21.54V30H123.63V21.18C123.63 20.42 123.44 19.82 123.06 19.38C122.7 18.94 122.17 18.72 121.47 18.72C120.73 18.72 120.15 18.97 119.73 19.47C119.33 19.97 119.13 20.66 119.13 21.54V30H114.63V15H119.13V16.38C119.95 15.18 121.29 14.58 123.15 14.58C124.89 14.58 126.2 15.24 127.08 16.56C128 15.24 129.45 14.58 131.43 14.58ZM151.097 15H155.597V30H151.097V28.59C150.037 29.81 148.547 30.42 146.627 30.42C144.647 30.42 142.957 29.66 141.557 28.14C140.157 26.6 139.457 24.72 139.457 22.5C139.457 20.28 140.157 18.41 141.557 16.89C142.957 15.35 144.647 14.58 146.627 14.58C148.547 14.58 150.037 15.19 151.097 16.41V15ZM144.947 25.17C145.607 25.83 146.467 26.16 147.527 26.16C148.587 26.16 149.447 25.83 150.107 25.17C150.767 24.51 151.097 23.62 151.097 22.5C151.097 21.38 150.767 20.49 150.107 19.83C149.447 19.17 148.587 18.84 147.527 18.84C146.467 18.84 145.607 19.17 144.947 19.83C144.287 20.49 143.957 21.38 143.957 22.5C143.957 23.62 144.287 24.51 144.947 25.17ZM166.098 30.42C163.818 30.42 161.918 29.66 160.398 28.14C158.898 26.62 158.148 24.74 158.148 22.5C158.148 20.26 158.898 18.38 160.398 16.86C161.918 15.34 163.818 14.58 166.098 14.58C167.538 14.58 168.858 14.93 170.058 15.63C171.278 16.33 172.218 17.26 172.878 18.42L168.948 20.7C168.408 19.58 167.438 19.02 166.038 19.02C165.058 19.02 164.248 19.35 163.608 20.01C162.968 20.65 162.648 21.48 162.648 22.5C162.648 23.52 162.968 24.36 163.608 25.02C164.248 25.66 165.058 25.98 166.038 25.98C167.458 25.98 168.428 25.42 168.948 24.3L172.878 26.55C172.218 27.73 171.288 28.67 170.088 29.37C168.888 30.07 167.558 30.42 166.098 30.42ZM184.286 15H189.086L183.956 29.55C183.116 31.91 182.006 33.6 180.626 34.62C179.266 35.64 177.526 36.1 175.406 36V31.8C176.446 31.8 177.246 31.61 177.806 31.23C178.366 30.87 178.816 30.23 179.156 29.31L173.186 15H178.136L181.466 24.18L184.286 15Z" fill="#333333"/>
<path d="M12.5348 2.15064C11.1578 0.773608 9.29015 0 7.34274 0C5.39532 0 3.52767 0.773608 2.15064 2.15064C0.773608 3.52767 0 5.39532 0 7.34274C0 9.29015 0.773608 11.1578 2.15064 12.5348L8.6198 19.004L2.15064 25.4732C0.816304 26.8588 0.0790242 28.7127 0.0973422 30.6363C0.11566 32.5598 0.888113 34.3994 2.24859 35.7594C3.60907 37.1193 5.44892 37.8911 7.37248 37.9087C9.29605 37.9263 11.1497 37.1883 12.5348 35.8535L19.004 29.3843V8.6198L12.5348 2.15064Z" fill="#3DB2FF"/>
<path d="M25.4732 2.15055C26.8588 0.816219 28.7127 0.0789391 30.6363 0.0972572C32.5598 0.115575 34.3994 0.888028 35.7594 2.24851C37.1193 3.60899 37.8911 5.44883 37.9087 7.3724C37.9263 9.29597 37.1883 11.1496 35.8535 12.5347L29.3843 19.0039L35.8535 25.4731C37.23 26.8496 38.0033 28.7165 38.0033 30.6632C38.0033 32.6099 37.23 34.4769 35.8535 35.8534C34.4769 37.2299 32.61 38.0032 30.6633 38.0032C28.7166 38.0032 26.8497 37.2299 25.4732 35.8534L19.004 29.3842V8.61972L25.4732 2.15055Z" fill="#65C2FF"/>
<path d="M26.4753 16.0989C26.3724 15.3009 26.0329 14.552 25.5005 13.9488C24.9681 13.3455 24.2673 12.9155 23.4883 12.7141C23.1453 12.637 22.7949 12.5965 22.4433 12.5933C21.4628 12.6042 20.5162 12.9542 19.7644 13.5837C19.4273 13.8435 19.1428 14.1651 18.926 14.5313C18.7077 14.165 18.4219 13.8435 18.0837 13.5837C17.3338 12.9536 16.3882 12.6035 15.4087 12.5933C15.0571 12.5965 14.7068 12.637 14.3637 12.7141C12.7025 13.1041 11.7432 14.5781 11.5327 16.0989C11.3689 17.2687 11.8758 18.809 13.5175 20.4272C15.1592 22.0209 16.8964 23.5132 18.7193 24.896L19.0742 25.165L19.2692 25.052C21.1008 23.7285 22.8449 22.2879 24.4905 20.7392C26.1283 19.1092 26.6391 17.2765 26.4753 16.0989Z" fill="white"/>
</svg>
